<svg width="36" height="36" viewBox="0 0 36 36" fill="none" xmlns="http://www.w3.org/2000/svg">
<g id="Carrito">
<path id="Vector" d="M11.25 27C12.4926 27 13.5 28.0074 13.5 29.25C13.5 30.4926 12.4926 31.5 11.25 31.5C10.0074 31.5 9 30.4926 9 29.25C9 28.0074 10.0074 27 11.25 27Z" stroke="white" stroke-width="2.25"/>
<path id="Vector_2" d="M24.75 27C25.9926 27 27 28.0073 27 29.25C27 30.4926 25.9926 31.5 24.75 31.5C23.5074 31.5 22.5 30.4926 22.5 29.25C22.5 28.0073 23.5074 27 24.75 27Z" stroke="white" stroke-width="2.25"/>
<path id="Vector_3" d="M3.37295 3.43899C2.7868 3.23291 2.14457 3.54102 1.9385 4.12716C1.73242 4.71332 2.04053 5.35554 2.62667 5.56161L3.37295 3.43899ZM30.9865 14.8244L32.0883 15.0516L32.0898 15.0447L30.9865 14.8244ZM8.56193 14.6403V10.5578H6.31193V14.6403H8.56193ZM3.76477 3.57674L3.37295 3.43899L2.62667 5.56161L3.01849 5.69937L3.76477 3.57674ZM16.4061 24.3753H24.3604V22.1253H16.4061V24.3753ZM8.56193 10.5578C8.56193 9.4971 8.56346 8.61195 8.4856 7.89266C8.405 7.14809 8.23039 6.46901 7.80742 5.85005L5.94973 7.1195C6.08512 7.31763 6.18967 7.58976 6.24866 8.13479C6.3104 8.7051 6.31193 9.44792 6.31193 10.5578H8.56193ZM3.01849 5.69937C4.0199 6.05145 4.67803 6.28478 5.1623 6.52239C5.61713 6.74556 5.81764 6.92621 5.94973 7.1195L7.80742 5.85005C7.38115 5.22626 6.81437 4.82675 6.15343 4.50245C5.5219 4.19258 4.71574 3.91109 3.76477 3.57674L3.01849 5.69937ZM6.31193 14.6403C6.31193 16.8191 6.33238 18.3902 6.53795 19.5905C6.75743 20.8719 7.19564 21.7895 8.01499 22.6536L9.64778 21.1056C9.16754 20.5991 8.90851 20.103 8.75566 19.2107C8.58892 18.237 8.56193 16.8738 8.56193 14.6403H6.31193ZM16.4061 22.1253C14.2808 22.1253 12.8063 22.1226 11.6953 21.9651C10.623 21.813 10.0566 21.5367 9.64778 21.1056L8.01499 22.6536C8.90578 23.5932 10.035 24.0023 11.3794 24.1928C12.6849 24.378 14.3478 24.3753 16.4061 24.3753V22.1253ZM7.43693 10.3053H25.633V8.0553H7.43693V10.3053ZM29.8846 14.5973L29.1351 18.2345L31.3387 18.6887L32.0883 15.0516L29.8846 14.5973ZM25.633 10.3053C26.9176 10.3053 28.0482 10.3068 28.9404 10.4065C29.3838 10.4561 29.7156 10.5249 29.9487 10.6069C30.1908 10.6919 30.2293 10.7572 30.21 10.7319L31.9933 9.35997C31.6408 8.90184 31.1452 8.64248 30.6946 8.48411C30.2349 8.32257 29.715 8.22911 29.1904 8.17047C28.1467 8.0538 26.8759 8.0553 25.633 8.0553V10.3053ZM32.0898 15.0447C32.3436 13.7728 32.5591 12.7057 32.6119 11.8509C32.6661 10.9716 32.566 10.1046 31.9933 9.35997L30.21 10.7319C30.303 10.8529 30.4057 11.0709 30.3661 11.7123C30.325 12.3782 30.1501 13.2675 29.8833 14.6042L32.0898 15.0447ZM24.3604 24.3753C25.503 24.3753 26.4618 24.3773 27.2347 24.2826C28.0383 24.1844 28.7712 23.9694 29.4109 23.448L27.9895 21.7038C27.8017 21.8568 27.5355 21.9791 26.9614 22.0494C26.3566 22.1234 25.5594 22.1253 24.3604 22.1253V24.3753ZM29.1351 18.2345C28.893 19.4087 28.7301 20.1893 28.5355 20.7666C28.3509 21.3146 28.1773 21.5508 27.9895 21.7038L29.4109 23.448C30.0507 22.9266 30.4092 22.2522 30.6678 21.4851C30.9165 20.7471 31.108 19.8077 31.3387 18.6887L29.1351 18.2345Z" fill="white"/>
</g>
</svg>
