<?xml version="1.0" standalone="no"?>
<!DOCTYPE svg PUBLIC "-//W3C//DTD SVG 20010904//EN"
 "http://www.w3.org/TR/2001/REC-SVG-20010904/DTD/svg10.dtd">
<svg version="1.0" xmlns="http://www.w3.org/2000/svg"
 width="32.000000pt" height="32.000000pt" viewBox="0 0 32.000000 32.000000"
 preserveAspectRatio="xMidYMid meet">

<g transform="translate(0.000000,32.000000) scale(0.100000,-0.100000)"
fill="#000000" stroke="none">
<path d="M100 273 c-95 -49 -87 -193 13 -232 105 -40 206 61 166 166 -27 70
-111 101 -179 66z m110 -18 c32 -17 60 -61 60 -95 0 -53 -57 -110 -110 -110
-53 0 -110 57 -110 110 0 33 28 78 58 94 35 20 66 20 102 1z"/>
<path d="M115 190 l-29 -30 32 -32 c33 -34 58 -32 27 2 -18 20 -18 20 33 20
29 0 52 5 52 10 0 6 -23 10 -52 10 -49 0 -50 1 -35 18 38 42 12 43 -28 2z"/>
</g>
</svg>
