<svg width="46" height="48" viewBox="0 0 46 48" fill="none" xmlns="http://www.w3.org/2000/svg">
<g id="Outline">
<g id="Hamburguer">
<path id="Vector" d="M24.2856 16.8346C24.3327 16.8854 24.3896 16.926 24.4529 16.9537C24.5163 16.9815 24.5846 16.9959 24.6536 16.996C24.7085 16.9956 24.763 16.9866 24.8152 16.9693C24.9073 16.9394 24.9889 16.8835 25.0502 16.8082C25.1115 16.7329 25.1499 16.6414 25.1608 16.5447C25.3653 14.8588 25.3254 14.7385 25.2937 14.6409C25.1905 14.3494 24.9781 14.1101 24.7018 13.9739C24.4255 13.8378 24.1072 13.8157 23.8149 13.9123C23.5226 14.0089 23.2794 14.2166 23.1374 14.4911C22.9953 14.7655 22.9656 15.0849 23.0546 15.381C23.0863 15.4787 23.1261 15.6 24.2856 16.8346ZM23.7611 14.8012C23.7881 14.7466 23.8257 14.6979 23.8717 14.658C23.9177 14.6181 23.9712 14.5878 24.0289 14.5689C24.1411 14.532 24.263 14.5393 24.37 14.5896C24.4479 14.6262 24.5136 14.6836 24.5605 14.7546C24.5952 14.8074 24.6057 14.8081 24.6041 14.8712C24.5933 15.2977 24.0454 15.5394 23.7816 15.2041C23.779 15.2008 23.7765 15.1976 23.774 15.1945C23.741 15.1521 23.717 15.1029 23.7125 15.0494C23.7053 14.9643 23.7219 14.8782 23.7611 14.8012Z" fill="#1F2421"/>
<path id="Vector_2" d="M10.4666 14.5347C10.5078 14.5467 10.5506 14.5519 10.5934 14.5501C10.7631 14.5501 11.1649 14.5018 12.3469 14.2777C12.4414 14.2589 12.5287 14.2136 12.5987 14.1471C12.6688 14.0806 12.7187 13.9956 12.7427 13.9018C12.7668 13.808 12.764 13.7092 12.7346 13.617C12.7053 13.5247 12.6506 13.4426 12.5769 13.3803C11.2754 12.2978 11.1527 12.2659 11.0545 12.2402C10.7557 12.1728 10.4425 12.2249 10.1812 12.3855C9.91989 12.5462 9.73105 12.8028 9.65465 13.101C9.57824 13.3992 9.62026 13.7156 9.77182 13.9832C9.92338 14.2508 10.1726 14.4486 10.4666 14.5347ZM10.3153 13.2662C10.3411 13.1662 10.3992 13.0776 10.4804 13.0144C10.5616 12.9511 10.6614 12.9167 10.7642 12.9166C10.7657 12.9166 10.7673 12.9167 10.7689 12.9167C10.8244 12.9174 10.829 12.9104 10.8756 12.9406C11.2343 13.1732 11.077 13.7908 10.6507 13.8226C10.5919 13.827 10.5909 13.8174 10.5394 13.7886C10.4636 13.7464 10.4007 13.6834 10.3583 13.6061C10.3015 13.5024 10.2862 13.3808 10.3153 13.2662Z" fill="#1F2421"/>
<path id="Vector_3" d="M10.2488 22.768C10.4375 22.7679 10.6234 22.7221 10.7907 22.6343C10.8817 22.587 10.9952 22.5315 12.0176 21.1777C12.0755 21.1001 12.1105 21.0077 12.1184 20.911C12.1263 20.8143 12.1068 20.7174 12.0622 20.6314C12.0176 20.5454 11.9497 20.4738 11.8664 20.425C11.783 20.3761 11.6877 20.3519 11.5913 20.3553C9.90323 20.4262 9.79179 20.4848 9.70079 20.5321C9.46689 20.6549 9.28074 20.8531 9.17215 21.0949C9.06355 21.3367 9.03878 21.6082 9.10181 21.8658C9.16484 22.1234 9.31202 22.3524 9.51979 22.5159C9.72756 22.6795 9.98391 22.7682 10.2478 22.768H10.2488ZM9.80406 21.4429C9.82963 21.3623 9.87633 21.2907 9.93854 21.2353C9.98154 21.197 9.97994 21.1879 10.0368 21.1789C10.4595 21.1117 10.7514 21.6784 10.4554 21.9876C10.4152 22.0296 10.4084 22.0231 10.3518 22.0365C10.2941 22.0502 10.234 22.0526 10.1748 22.0434C10.0866 22.0297 10.0041 21.9906 9.93749 21.9309C9.87083 21.8711 9.82277 21.7933 9.79909 21.7067C9.77542 21.6201 9.77714 21.5285 9.80406 21.4429Z" fill="#1F2421"/>
<path id="Vector_4" d="M35.7073 23.4709C35.8073 23.6634 35.9579 23.8245 36.1427 23.9369C36.3275 24.0493 36.5393 24.1086 36.7553 24.1083C36.9441 24.1084 37.1301 24.0622 37.2972 23.9736C37.3871 23.9263 37.5017 23.8708 38.5241 22.518C38.582 22.4405 38.617 22.348 38.6248 22.2513C38.6327 22.1547 38.6133 22.0577 38.5687 21.9717C38.5241 21.8857 38.4562 21.8141 38.3729 21.7653C38.2895 21.7164 38.1941 21.6923 38.0977 21.6956C36.4107 21.7655 36.2983 21.8251 36.2073 21.8724C35.9304 22.018 35.7223 22.2681 35.6286 22.5678C35.5348 22.8674 35.5632 23.1922 35.7073 23.4709ZM36.515 22.5254C36.515 22.5247 36.5155 22.5241 36.5162 22.5239C36.5666 22.514 36.67 22.5017 36.8351 22.4879C37.1693 22.46 37.3702 22.8442 37.1565 23.1027C37.0949 23.1772 37.0455 23.2351 37.0076 23.2777C36.9649 23.3257 36.9114 23.3644 36.8483 23.3759C36.7679 23.3905 36.6845 23.3835 36.6067 23.3549C36.4983 23.315 36.4086 23.2358 36.3553 23.1329C36.3019 23.0299 36.2887 22.9107 36.3182 22.7984C36.3477 22.6865 36.4176 22.5896 36.5143 22.5267C36.5148 22.5264 36.515 22.5259 36.515 22.5254Z" fill="#1F2421"/>
<path id="Vector_5" d="M18.3515 18.7926C18.2857 18.8641 18.2419 18.9531 18.2252 19.049C18.2085 19.1449 18.2197 19.2437 18.2574 19.3333C18.9036 20.902 18.9977 20.9884 19.0754 21.0573C19.2918 21.2561 19.5746 21.3662 19.8678 21.3656H19.926C20.1581 21.354 20.3815 21.2736 20.5682 21.1347C20.7549 20.9958 20.8967 20.8045 20.9757 20.5848C21.0546 20.3652 21.0673 20.127 21.0121 19.9001C20.9569 19.6732 20.8362 19.4678 20.6653 19.3097C20.5906 19.2408 20.4966 19.1555 18.8832 18.6528C18.7906 18.6219 18.6911 18.6186 18.5967 18.6434C18.5024 18.6683 18.4172 18.7201 18.3515 18.7926ZM20.1725 19.8456C20.224 19.8687 20.2202 19.8769 20.2515 19.9239C20.2847 19.9739 20.3081 20.0302 20.3201 20.0897C20.3378 20.1773 20.33 20.2681 20.2976 20.3513C20.2652 20.4345 20.2097 20.5066 20.1376 20.5588C20.0656 20.6111 19.98 20.6414 19.8913 20.6461C19.8065 20.6507 19.7228 20.6314 19.6492 20.5911C19.5995 20.564 19.5918 20.5683 19.5643 20.5188C19.3578 20.1457 19.7834 19.6712 20.1725 19.8456Z" fill="#1F2421"/>
<path id="Vector_6" d="M17.734 12.8745H17.7392C17.8355 12.8749 17.93 12.8475 18.0114 12.7955C18.0927 12.7436 18.1576 12.6693 18.1982 12.5815C18.9313 11.0518 18.9323 10.9244 18.9333 10.8226C18.9363 10.5083 18.8152 10.2057 18.5965 9.98116C18.3777 9.75662 18.0793 9.62853 17.7668 9.625H17.7555C17.445 9.62498 17.147 9.74816 16.9262 9.96778C16.7055 10.1874 16.5799 10.4857 16.5767 10.7979C16.5767 10.9007 16.5767 11.0282 17.276 12.5722C17.3152 12.6617 17.3793 12.7378 17.4606 12.7914C17.5419 12.845 17.6368 12.8739 17.734 12.8745ZM17.7555 10.3477C17.8734 10.3491 17.9864 10.3955 18.0715 10.4776C18.1346 10.5386 18.1789 10.6157 18.2 10.6999C18.2147 10.7582 18.2242 10.761 18.2041 10.8177C18.0612 11.2201 17.4304 11.2146 17.298 10.8086C17.2798 10.7528 17.2888 10.7497 17.304 10.693C17.3267 10.6086 17.3726 10.5316 17.4374 10.4715C17.5239 10.3911 17.6377 10.3468 17.7555 10.3477Z" fill="#1F2421"/>
<path id="Vector_7" d="M34.7116 16.2576H34.7167C34.8126 16.2582 34.9067 16.2314 34.988 16.1803C35.0693 16.1291 35.1344 16.0557 35.1758 15.9687C35.9088 14.4381 35.9099 14.3106 35.9109 14.2088C35.9139 13.8946 35.7927 13.5919 35.574 13.3674C35.3553 13.1429 35.0569 13.0148 34.7443 13.0112H34.732C34.4218 13.0118 34.1242 13.1351 33.9037 13.3547C33.6833 13.5742 33.5577 13.8722 33.5542 14.1842C33.5542 14.287 33.5542 14.4144 34.2535 15.9585C34.2932 16.0473 34.3575 16.1228 34.4388 16.1758C34.52 16.2289 34.6147 16.2573 34.7116 16.2576ZM34.7371 13.7308C34.8551 13.7322 34.968 13.7787 35.0531 13.8608C35.1162 13.9217 35.1605 13.9989 35.1817 14.083C35.1963 14.1414 35.2058 14.1442 35.1857 14.2009C35.0428 14.6033 34.4094 14.5977 34.2792 14.1911C34.2617 14.1364 34.2705 14.1337 34.2851 14.0782C34.3075 13.9929 34.3537 13.9152 34.419 13.8546C34.5056 13.7742 34.6193 13.73 34.7371 13.7308Z" fill="#1F2421"/>
<path id="Vector_8" d="M28.9471 21.0114C29.0313 21.059 29.1272 21.0816 29.2236 21.0767C29.32 21.0718 29.4131 21.0395 29.4921 20.9836C30.8713 20.0029 30.9337 19.8919 30.9838 19.8035C31.1382 19.5302 31.1783 19.2064 31.0953 18.9033C31.0123 18.6003 30.8129 18.3428 30.5411 18.1875C30.4065 18.1105 30.2581 18.061 30.1044 18.0418C29.9507 18.0225 29.7947 18.034 29.6454 18.0754C29.4962 18.1169 29.3565 18.1875 29.2344 18.2833C29.1122 18.3791 29.0101 18.4981 28.9338 18.6337C28.8837 18.7221 28.8214 18.8331 28.6905 20.5262C28.6823 20.6233 28.7022 20.7207 28.7477 20.8068C28.7933 20.8928 28.8625 20.9639 28.9471 21.0114ZM29.5708 18.9638C29.5708 18.9641 29.5712 18.9642 29.5713 18.9639C29.6362 18.8663 29.7354 18.7968 29.8491 18.7696C29.9631 18.7423 30.0831 18.7595 30.185 18.8176C30.2869 18.8757 30.3631 18.9705 30.3982 19.0829C30.4243 19.1662 30.4264 19.2547 30.4051 19.3382C30.3903 19.3961 30.3525 19.4445 30.3067 19.483C30.1963 19.5758 29.9811 19.7426 29.6344 19.9963C29.5583 20.0519 29.4525 19.992 29.461 19.8981C29.5104 19.3514 29.5478 19.0607 29.5703 18.9636C29.5704 18.9633 29.5708 18.9635 29.5708 18.9638Z" fill="#1F2421"/>
<path id="Vector_9" d="M25.667 10.0413C25.7426 10.1091 25.8377 10.1934 27.4593 10.6683C27.5522 10.6956 27.6509 10.6957 27.744 10.6688C27.837 10.6418 27.9205 10.5889 27.9848 10.5161C28.049 10.4433 28.0914 10.3536 28.107 10.2576C28.1226 10.1615 28.1107 10.063 28.0727 9.97341C27.401 8.41601 27.3059 8.32863 27.2292 8.26387C26.995 8.0558 26.6882 7.94975 26.3763 7.96903C26.0644 7.98831 25.7728 8.13133 25.5657 8.36667C25.463 8.4833 25.3842 8.61914 25.3337 8.76642C25.2832 8.9137 25.262 9.06954 25.2714 9.22504C25.2808 9.38054 25.3206 9.53265 25.3884 9.6727C25.4563 9.81275 25.5509 9.93798 25.667 10.0413ZM26.0984 8.84468C26.1765 8.75595 26.2853 8.70041 26.4026 8.68934C26.4905 8.68105 26.5782 8.69815 26.6559 8.73772C26.7079 8.76425 26.7163 8.75972 26.7454 8.81037C26.9576 9.17954 26.54 9.65835 26.1468 9.49479C26.0925 9.4722 26.0963 9.46328 26.0634 9.41454C26.0145 9.34213 25.9865 9.25681 25.9835 9.16814C25.9795 9.04956 26.0206 8.9339 26.0984 8.84468Z" fill="#1F2421"/>
<path id="Vector_10" d="M42.2313 39.6515C41.9558 39.6515 41.8103 39.3168 41.9792 39.0991C42.5224 38.3985 42.9306 37.5352 42.9306 36.3085C42.931 35.8284 43.273 35.3965 43.7034 35.1839C44.8464 34.6196 45.5 33.2292 45.5 31.8737C45.5 30.0049 44.2925 28.7004 42.5646 28.7004C42.2173 28.7004 41.9358 28.4188 41.9358 28.0716V27.5863C41.9358 27.1259 42.2285 26.7257 42.6162 26.4774C42.9314 26.2755 43.2164 26.0272 43.4613 25.7398C43.8138 25.3244 44.0721 24.8369 44.2183 24.3111C44.3645 23.7853 44.3951 23.2338 44.3078 22.6949C43.2847 16.3823 39.4645 10.7957 34.0021 7.53325C33.5653 7.27234 33.3609 6.74143 33.5339 6.26292C33.7289 5.72371 34.3271 5.44795 34.8637 5.64988L40.5791 7.8004C40.6455 7.82572 40.7178 7.83055 40.787 7.81428C40.8561 7.798 40.9188 7.76136 40.9672 7.70904C41.0155 7.65672 41.0471 7.5911 41.0581 7.52057C41.0692 7.45004 41.059 7.37782 41.0289 7.31313L41.0164 7.28572C40.4519 6.05526 40.9893 4.60006 42.218 4.03181C42.2822 4.00183 42.336 3.95341 42.3728 3.89266C42.4096 3.83191 42.4277 3.76156 42.4247 3.6905C42.4218 3.61944 42.3979 3.55085 42.3562 3.4934C42.3145 3.43595 42.2568 3.39222 42.1904 3.36773L35.1377 0.781318C35.0484 0.748789 34.9498 0.753226 34.8637 0.793654C34.8209 0.81378 34.7825 0.842351 34.7509 0.877669C34.7193 0.912988 34.6951 0.954333 34.6797 0.999251L33.3403 4.7C32.9421 5.79913 31.6763 6.29843 30.5824 5.8863C28.1181 4.95794 25.4998 4.48812 22.856 4.50665C19.4795 4.53031 16.1556 5.34984 13.1513 6.89941C10.147 8.44897 7.546 10.6854 5.55728 13.429C3.56856 16.1726 2.24754 19.3469 1.70033 22.6969C1.61294 23.2353 1.64323 23.7864 1.78907 24.3119C1.93491 24.8374 2.19281 25.3246 2.54485 25.7398C2.7885 26.0281 3.07245 26.2773 3.38672 26.4804C3.77181 26.7291 4.06213 27.128 4.06213 27.5865V28.4212C4.06213 28.5754 3.93716 28.7004 3.78301 28.7004C2.41705 28.7004 1.45903 29.1444 0.934531 30.0213C0.5 30.7481 0.5 31.5931 0.5 32.0978C0.5 33.5998 1.13904 34.6678 2.26771 35.1532C2.72942 35.3518 3.07087 35.8059 3.07038 36.3085C3.06166 37.3536 3.38411 38.3691 3.98331 39.2114C4.10942 39.3886 3.98931 39.6515 3.77176 39.6515C3.14768 39.6542 2.55003 39.9052 2.1094 40.3495C1.66877 40.7939 1.42099 41.3956 1.42018 42.023V42.7868C1.42181 44.0524 1.92261 45.2656 2.81274 46.1604C3.70286 47.0551 4.90963 47.5584 6.16832 47.5598H39.8429C41.1015 47.5584 42.3082 47.0551 43.1981 46.1603C44.0881 45.2655 44.5887 44.0523 44.59 42.7868V42.023C44.5892 41.3943 44.3405 40.7916 43.8983 40.347C43.4561 39.9024 42.8566 39.6523 42.2313 39.6515ZM34.6786 3.10915C34.9826 2.26687 35.9134 1.83225 36.7544 2.13992L39.3061 3.07353C39.9807 3.32035 40.0213 4.25912 39.3706 4.56327C39.3278 4.58308 39.2894 4.61117 39.2575 4.64593C39.2256 4.68068 39.2008 4.72143 39.1845 4.76583C39.1683 4.81022 39.1609 4.85741 39.1629 4.90468C39.1648 4.95194 39.1759 4.99837 39.1957 5.04129C39.4961 5.69675 38.8517 6.38716 38.1771 6.13249L35.628 5.17011C34.8015 4.85806 34.3786 3.94017 34.6786 3.10915ZM43.769 31.8737C43.769 32.9655 43.1494 33.6994 42.5718 33.6994C42.3779 33.7009 42.2122 33.5768 42.1095 33.4123C41.5062 32.4458 40.6138 31.6924 39.5566 31.2631C39.4534 31.221 39.343 31.1994 39.2315 31.1994C37.2777 31.1994 36.5272 31.993 35.925 32.6303C35.3596 33.2276 34.9128 33.6994 33.1644 33.6994C32.7463 33.6994 32.3665 33.67 32.0156 33.6173C30.7931 33.4339 30.5267 31.9254 31.3749 31.026C31.7229 30.6571 32.2076 30.4479 32.7148 30.4479H42.5718C43.6136 30.4479 43.769 31.3413 43.769 31.8737ZM24.9094 31.4626C24.5389 31.0851 24.8063 30.4479 25.3352 30.4479H26.7571C27.8034 30.4479 28.3387 31.7035 27.6208 32.4648L27.6147 32.472C27.1573 32.9589 26.3866 32.9673 25.9186 32.4906L24.9094 31.4626ZM5.8023 27.8913C5.8023 27.4445 6.16451 27.0823 6.61132 27.0823H39.3958C39.8426 27.0823 40.2049 27.4445 40.2049 27.8913C40.2049 28.3381 39.8426 28.7004 39.3958 28.7004H6.61132C6.16451 28.7004 5.8023 28.3381 5.8023 27.8913ZM3.874 24.609C3.68484 24.3866 3.54607 24.1255 3.46732 23.8438C3.38858 23.562 3.37175 23.2665 3.418 22.9776C3.92452 19.8821 5.14953 16.9501 6.99367 14.4196C8.83782 11.8891 11.2492 9.83115 14.0322 8.41274C16.8152 6.99434 19.8916 6.25538 23.0117 6.2558C24.7017 6.25602 26.3788 6.47315 28.0033 6.89765C30.366 7.51505 31.3669 10.1383 30.5358 12.4346C30.5197 12.4789 30.5124 12.526 30.5144 12.5732C30.5164 12.6203 30.5277 12.6666 30.5475 12.7094C30.5674 12.7522 30.5955 12.7906 30.6301 12.8225C30.6648 12.8544 30.7053 12.879 30.7495 12.8951C30.7887 12.9097 30.8303 12.917 30.8722 12.9167C30.9456 12.9167 31.0172 12.8941 31.0774 12.8518C31.1376 12.8095 31.1834 12.7496 31.2085 12.6802C31.9523 10.6247 34.387 9.71955 36.0301 11.1613C37.2279 12.2123 38.3002 13.4069 39.2215 14.7218C40.9458 17.183 42.0968 20.0029 42.5892 22.9724C42.6368 23.2618 42.621 23.5582 42.543 23.8409C42.4649 24.1236 42.3265 24.3857 42.1372 24.609C41.9437 24.8381 41.7029 25.0222 41.4315 25.1484C41.1602 25.2746 40.8648 25.3399 40.5658 25.3399H5.44138C5.14305 25.3395 4.84836 25.274 4.57772 25.1478C4.30708 25.0216 4.06696 24.8377 3.874 24.609ZM2.23812 32.103C2.23812 31.1449 2.23812 30.4531 3.78301 30.4531H21.1874C21.3688 30.4531 21.5425 30.5261 21.6695 30.6556C22.0283 31.0215 21.8661 31.6501 21.4042 31.8721C20.956 32.0873 20.5659 32.3303 20.196 32.5625C19.2155 33.1793 18.3689 33.7046 16.6042 33.7046C14.7639 33.7046 14.0328 33.1238 13.2609 32.509C12.5074 31.9087 11.6536 31.2292 10.0218 31.2292C8.20193 31.2292 6.95457 32.0752 5.95157 32.7558C5.30335 33.1957 4.74204 33.5781 4.14904 33.6809C4.04472 33.6994 3.93902 33.7086 3.83311 33.7087C2.71457 33.6994 2.23812 33.2204 2.23812 32.0978V32.103ZM4.8085 36.3177C4.80795 35.6593 5.34334 35.1732 5.91737 34.8507C6.26721 34.6542 6.59856 34.4296 6.92492 34.2083C7.85533 33.5771 8.73461 32.9809 10.0229 32.9809C11.0453 32.9809 11.5248 33.3592 12.1822 33.8824C13.0625 34.5835 14.1586 35.4563 16.6052 35.4563C18.8658 35.4563 20.061 34.7089 21.1141 34.05C22.7617 33.021 24.7314 33.7781 26.0926 35.1637L26.167 35.2394C26.2469 35.3216 26.3423 35.387 26.4476 35.4318C26.5529 35.4767 26.6661 35.5 26.7804 35.5005H26.7886C26.9053 35.4992 27.0206 35.4744 27.1276 35.4274C27.2345 35.3804 27.331 35.3123 27.4113 35.227C28.0056 34.596 28.9367 34.4623 29.7389 34.7907C30.6528 35.1649 31.7349 35.4522 33.1573 35.4522C35.654 35.4522 36.4996 34.5578 37.1795 33.8403C38.1524 32.8121 39.8989 33.1599 40.6426 34.3643C40.7236 34.4954 40.7967 34.6321 40.8613 34.7737C41.0828 35.2571 41.1965 35.7834 41.1946 36.3157C41.1946 37.3005 40.7999 37.8905 40.119 38.5772C39.7782 38.9214 39.373 39.1943 38.9267 39.3801C38.4804 39.5659 38.002 39.6609 37.5189 39.6597H8.48207C6.35338 39.6515 4.8085 38.2452 4.8085 36.3085V36.3177ZM42.8519 42.794C42.8511 43.5962 42.5338 44.3652 41.9697 44.9324C41.4056 45.4996 40.6407 45.8186 39.8429 45.8194H6.16526C5.36667 45.8178 4.60139 45.4974 4.03756 44.9288C3.47374 44.3602 3.15749 43.5898 3.15831 42.7868V42.023C3.15829 41.8588 3.2227 41.7012 3.33754 41.5843C3.45238 41.4675 3.60841 41.4009 3.77176 41.3991H42.2313C42.3959 41.3991 42.5538 41.4648 42.6701 41.5818C42.7865 41.6988 42.8519 41.8576 42.8519 42.023V42.794Z" fill="#1F2421"/>
<path id="Vector_11" d="M8.16091 15.7681C8.12612 15.7353 8.08517 15.7099 8.04046 15.6932C7.99575 15.6766 7.94819 15.6691 7.90057 15.6712C7.85295 15.6734 7.80623 15.685 7.76315 15.7055C7.72006 15.726 7.68149 15.755 7.6497 15.7907C6.55468 17.0017 5.00366 20.5544 4.5814 22.8355C4.56407 22.9293 4.58449 23.0261 4.63818 23.1048C4.69186 23.1834 4.77441 23.2374 4.86768 23.2549C4.88952 23.2595 4.91182 23.2616 4.93414 23.2611C5.01799 23.2609 5.0991 23.231 5.16323 23.1767C5.22736 23.1223 5.27041 23.047 5.28483 22.964C5.67335 20.8659 7.18961 17.3615 8.1834 16.2677C8.24482 16.1977 8.2768 16.1065 8.2726 16.0133C8.26841 15.9201 8.22836 15.8322 8.16091 15.7681Z" fill="#1F2421"/>
<path id="Vector_12" d="M15.0973 44.3956H6.27986C5.32389 44.3956 4.63171 43.5835 4.63171 43.0356C4.63171 42.9402 4.59401 42.8486 4.5269 42.7812C4.45979 42.7137 4.36877 42.6758 4.27386 42.6758C4.17896 42.6758 4.08794 42.7137 4.02083 42.7812C3.95372 42.8486 3.91602 42.9402 3.91602 43.0356C3.91602 43.9967 4.94866 45.1152 6.27986 45.1152H15.0973C15.1922 45.1152 15.2832 45.0773 15.3503 45.0098C15.4174 44.9423 15.4551 44.8508 15.4551 44.7554C15.4551 44.66 15.4174 44.5685 15.3503 44.501C15.2832 44.4335 15.1922 44.3956 15.0973 44.3956Z" fill="#1F2421"/>
</g>
</g>
</svg>
