<svg width="38" height="46" viewBox="0 0 38 46" fill="none" xmlns="http://www.w3.org/2000/svg">
<g id="Outline">
<path id="FrenchFries" d="M37.545 19.1841C37.4664 19.0992 37.3692 19.031 37.2599 18.9843C37.1507 18.9375 37.032 18.9133 36.9119 18.9132H35.6417L36.2325 6.94236C36.2427 6.73479 36.1644 6.53193 36.0149 6.37834C35.8653 6.22474 35.6568 6.13297 35.435 6.12318L26.6048 5.73892C26.3831 5.72966 26.1666 5.80304 26.0027 5.94296C25.8388 6.08288 25.7409 6.27792 25.7304 6.48531L25.6319 8.41026L25.0037 0.725203C24.9873 0.518787 24.8843 0.326835 24.7172 0.191293C24.55 0.0557521 24.3323 -0.0123575 24.1117 0.00184841L15.2982 0.634899C15.0771 0.651373 14.8719 0.749135 14.7276 0.906799C14.5833 1.06446 14.5116 1.26919 14.5282 1.4762L14.6464 2.91093L6.20311 3.35324C6.09313 3.35911 5.98548 3.38525 5.88632 3.43014C5.78717 3.47503 5.69845 3.5378 5.62527 3.61485C5.55209 3.6919 5.49588 3.78171 5.45987 3.87913C5.42385 3.97655 5.40874 4.07966 5.4154 4.18256L5.66648 8.40934L1.62947 8.98711C1.41019 9.01891 1.2133 9.13072 1.08191 9.29807C0.950517 9.46542 0.895324 9.67467 0.928414 9.88001L2.40537 18.9104H1.08793C0.96711 18.9103 0.847697 18.9346 0.73789 18.9818C0.628084 19.0289 0.530488 19.0978 0.451808 19.1836C0.373129 19.2694 0.315232 19.3701 0.282095 19.4788C0.248959 19.5876 0.241369 19.7017 0.259846 19.8135L3.72675 42.2494C3.74607 42.3744 3.79733 42.4932 3.87618 42.5957C3.95503 42.6982 4.05914 42.7814 4.17968 42.8382L8.62039 44.9189C8.79225 45.0001 8.98888 45.0229 9.17671 44.9834C15.6496 43.6463 22.3562 43.6463 28.8291 44.9834C28.8885 44.9959 28.9493 45.0021 29.0102 45.0019C29.1405 45.0021 29.269 44.9737 29.3854 44.9189L33.8231 42.8382C33.9439 42.7816 34.0483 42.6985 34.1273 42.596C34.2063 42.4934 34.2577 42.3745 34.277 42.2494L37.741 19.8135C37.7587 19.7015 37.7503 19.5874 37.7165 19.4788C37.6827 19.3701 37.6242 19.2696 37.545 19.1841ZM34.5252 7.65005L33.9659 18.9113H32.6859C32.5109 18.9115 32.3403 18.963 32.1982 19.0585C32.056 19.1541 31.9494 19.2888 31.8932 19.444L31.8785 19.4845C31.8342 19.6071 31.7869 19.7278 31.7386 19.8531L31.6884 19.9775C31.6402 20.0936 31.59 20.2088 31.5388 20.324C31.5122 20.3811 31.4856 20.4391 31.458 20.4963C31.4246 20.5691 31.3901 20.64 31.3546 20.7119C31.3015 20.8188 31.2483 20.9248 31.1922 21.0298L31.138 21.1302C30.6705 21.9928 30.0997 22.8027 29.4366 23.5445L30.8613 13.8552C30.8916 13.6492 30.8331 13.4404 30.6989 13.2747C30.6822 13.2542 30.6645 13.2345 30.6457 13.2157C30.5141 13.0833 30.3378 12.9974 30.1465 12.9725L27.104 12.5808L27.3649 7.3432L34.5252 7.65005ZM29.346 39.6463H8.65386L7.57077 32.4146H30.434L29.346 39.6463ZM30.5275 31.7695H7.47132L6.17948 23.1639C7.54937 25.1375 9.4187 26.7641 11.6216 27.8994L11.7082 27.9436L11.8854 28.0357L12.0233 28.103L12.0597 28.1205C12.3 28.2348 12.5442 28.3435 12.7903 28.4458L12.8041 28.4513C13.1448 28.5932 13.4911 28.7228 13.8429 28.8402L13.8655 28.8485L14.1019 28.925L14.1698 28.9462L14.3923 29.0134L14.4622 29.0337L14.667 29.0927L14.7202 29.1065C14.8492 29.1415 14.9801 29.1756 15.1141 29.2079L15.2421 29.2392C15.375 29.2705 15.5079 29.2991 15.6418 29.3313L15.7816 29.3608C15.9156 29.3875 16.0504 29.4124 16.1863 29.4364L16.3271 29.4603C16.464 29.4834 16.6018 29.5036 16.7407 29.523L16.8726 29.5414C17.0144 29.5599 17.1572 29.5764 17.3009 29.5912L17.4171 29.6032C17.5658 29.617 17.7125 29.6299 17.8651 29.64L17.9587 29.6465C18.1162 29.6566 18.2738 29.6649 18.4323 29.6704H18.4943C18.6597 29.676 18.8252 29.6787 18.9916 29.6787H19.0034H19.1442H19.3066H19.4878H19.6109C19.6788 29.6787 19.7468 29.6732 19.8137 29.6695H19.9122C19.987 29.6695 20.0609 29.6603 20.1357 29.6557L20.2076 29.6511L20.4498 29.6308H20.498C20.5857 29.6225 20.6733 29.6142 20.76 29.6041H20.7836C21.7285 29.5014 22.6611 29.3163 23.5691 29.0512L23.6252 29.0346L23.8222 28.9747L23.9364 28.9388L24.0211 28.9121L24.0831 28.8909L24.2525 28.8337L24.3864 28.7877L24.5656 28.7232L24.7625 28.6513L24.9594 28.5748L25.1002 28.5177L25.2509 28.4559L25.3907 28.396L25.5463 28.3288L25.6723 28.2716L25.8692 28.1795L25.9539 28.1399C28.3428 27.0005 30.3694 25.293 31.8302 23.1888L30.5275 31.7695ZM27.486 25.3248C26.982 25.7037 26.4496 26.0483 25.8929 26.3559C25.8171 26.3983 25.7412 26.4398 25.6644 26.4803C25.6122 26.5079 25.5591 26.5337 25.5069 26.5605C25.4084 26.6093 25.3159 26.6572 25.2204 26.7033L25.0825 26.7678C24.9742 26.8185 24.8659 26.8682 24.7556 26.9162L24.6443 26.965L24.5459 27.0037L24.2761 17.2333C24.2753 17.2068 24.273 17.1804 24.2692 17.1541C24.2692 17.1541 24.2692 17.1476 24.2692 17.144C24.2692 17.1209 24.2613 17.0988 24.2554 17.0767C24.2179 16.9286 24.135 16.7939 24.0169 16.6892C23.8989 16.5845 23.7508 16.5142 23.5908 16.487H23.579C23.5563 16.487 23.5347 16.4805 23.512 16.4787H23.4825H23.4421H23.4204L21.5496 16.5229L21.9937 13.5051L23.1753 13.6562L26.1183 14.0358H26.1252L29.0959 14.4183L27.486 25.3248ZM20.6064 18.1087H20.6113L22.6278 18.0599L22.8897 27.575L22.7558 27.6137L22.6485 27.6414C22.5146 27.6764 22.3807 27.7086 22.2458 27.7399L22.1473 27.7621C22.0095 27.7925 21.8716 27.821 21.7328 27.8468L21.6343 27.8662C21.4975 27.8911 21.3596 27.9141 21.2218 27.9353L21.1125 27.9519C20.9776 27.9722 20.8427 27.9897 20.7068 28.0053L20.5857 28.0192C20.4537 28.0339 20.3198 28.0459 20.1869 28.0569L20.0569 28.068C19.921 28.0772 19.7842 28.0846 19.6473 28.0901L19.5292 28.0966C19.3529 28.103 19.1767 28.1058 19.0004 28.1058C18.8242 28.1058 18.6676 28.1058 18.5012 28.0966L18.3712 28.091C18.2422 28.0855 18.1142 28.0791 17.9872 28.0698L17.8632 28.0615C17.5254 28.0348 17.1907 27.998 16.8588 27.9482L16.8086 27.9408C16.658 27.9178 16.5063 27.892 16.3567 27.8643L16.2848 27.8514C16.1233 27.8201 15.9618 27.7879 15.8023 27.7519L15.7295 27.7335L15.4685 18.2331L18.2974 18.165L20.6064 18.1087ZM13.77 27.1309C13.6269 27.0756 13.4855 27.0178 13.3457 26.9576L13.2994 26.9383C13.1543 26.8768 13.0109 26.812 12.8691 26.7438L12.8366 26.7282C12.6869 26.6569 12.5386 26.5835 12.3915 26.5079L12.3807 26.5015C12.2438 26.4305 12.1099 26.3568 11.976 26.2822C11.5822 26.0604 11.2011 25.8193 10.8329 25.5588L8.89806 14.8375L15.7708 13.7511L15.9628 13.7207L16.2395 15.2522L16.4896 16.6399L14.5853 16.686C14.4754 16.6886 14.3671 16.7115 14.2666 16.7533C14.1662 16.7951 14.0755 16.855 13.9998 16.9297C13.9241 17.0043 13.8648 17.0921 13.8254 17.1882C13.786 17.2843 13.7671 17.3866 13.77 17.4895L14.0359 27.2295C13.966 27.2037 13.8951 27.1797 13.8262 27.153L13.77 27.1309ZM23.4057 1.62548L24.2702 12.2123L21.3921 11.8437C21.3334 11.8359 21.274 11.834 21.2149 11.8381C21.0239 11.8516 20.8436 11.9259 20.7041 12.0486C20.5645 12.1714 20.4741 12.3351 20.4478 12.5127L19.8521 16.5616L19.2328 16.5763L18.1802 16.6021L17.8937 15.0144L17.4742 12.6896C17.4554 12.5846 17.4138 12.4843 17.352 12.3949C17.2902 12.3055 17.2095 12.2289 17.1148 12.1699L17.0784 12.1477L16.2602 2.1369L23.4057 1.62548ZM7.13063 4.87366L14.286 4.49862L14.7537 12.3238L12.0341 12.7532L11.3212 8.39184C11.3025 8.27084 11.2531 8.15578 11.1773 8.05625C11.1014 7.95671 11.0012 7.87558 10.885 7.8196L10.8644 7.80947C10.8297 7.79337 10.7938 7.77951 10.757 7.768H10.7403C10.7047 7.75787 10.6686 7.74956 10.632 7.74312H10.6202C10.581 7.73773 10.5416 7.73465 10.502 7.73391H10.4794C10.4418 7.73438 10.4043 7.73715 10.3671 7.7422L9.81672 7.82145L7.32855 8.17068L7.13063 4.87366ZM2.71257 10.4145L6.67179 9.84776L8.18813 9.63029L9.79309 9.40085L10.3839 13.0121L7.79329 13.424C7.68459 13.4407 7.58049 13.4774 7.48696 13.5319C7.39344 13.5864 7.31233 13.6577 7.2483 13.7416C7.18426 13.8255 7.13856 13.9204 7.1138 14.0208C7.08905 14.1213 7.08573 14.2254 7.10405 14.327L8.82224 23.8265C8.1617 23.1312 7.58485 22.3701 7.10208 21.5569L7.03611 21.4445C6.99279 21.3707 6.95045 21.2961 6.90909 21.2215C6.85395 21.122 6.7998 21.0206 6.74761 20.9192C6.71709 20.8603 6.68755 20.8004 6.65801 20.7405C6.61961 20.6621 6.58121 20.5838 6.54379 20.5046C6.52016 20.4548 6.49653 20.405 6.47388 20.3544C6.41874 20.2337 6.36656 20.112 6.31536 19.9858C6.29566 19.9406 6.27794 19.8936 6.25923 19.8485C6.21197 19.7296 6.16077 19.6107 6.12138 19.49L6.10366 19.444C6.04821 19.2893 5.94247 19.1546 5.80122 19.059C5.65998 18.9633 5.4903 18.9114 5.31595 18.9104H4.09894L2.71257 10.4145ZM2.05779 20.4769H4.72222C4.88173 20.8689 5.0583 21.2506 5.25195 21.6223L8.47663 43.1009L5.32087 41.621L2.05779 20.4769ZM19.0034 42.4079C15.7122 42.4084 12.4302 42.7318 9.21117 43.3727L8.74938 40.2931H29.2495L28.7867 43.3727C25.5693 42.7342 22.2893 42.413 19.0004 42.4144L19.0034 42.4079ZM32.6829 41.6145L29.5262 43.0944L29.9752 40.1079C29.9992 40.0633 30.012 40.0141 30.0126 39.9642C30.0123 39.9434 30.01 39.9228 30.0057 39.9024L32.744 21.6251C32.937 21.2528 33.1135 20.871 33.2737 20.4797H35.9421L32.6829 41.6145Z" fill="#1F2421"/>
</g>
</svg>
