<svg width="46" height="45" viewBox="0 0 46 45" fill="none" xmlns="http://www.w3.org/2000/svg">
<g id="Pizza">
<path id="Vector" d="M0.609191 8.38929L14.1124 30.985L15.7892 33.7893L22.2383 44.5849C22.3132 44.7107 22.423 44.8156 22.5564 44.8886C22.6897 44.9617 22.8417 45.0002 22.9965 45.0002C23.1514 45.0002 23.3034 44.9617 23.4367 44.8886C23.5701 44.8156 23.6799 44.7107 23.7548 44.5849L45.3911 8.38929C45.4931 8.21873 45.5249 8.01954 45.4806 7.82881C45.4363 7.63808 45.3189 7.46879 45.1502 7.35247C45.042 7.2776 42.4355 5.48734 38.4021 3.67718C34.6679 1.99971 28.9628 0 23.0006 0C19.7103 0 14.3666 0.637821 7.5981 3.67718C3.56172 5.48734 0.958228 7.2776 0.850047 7.35247C0.681349 7.46879 0.563915 7.63808 0.519607 7.82881C0.475299 8.01954 0.507136 8.21873 0.609191 8.38929ZM19.098 35.9994C18.4531 34.9193 19.0026 33.5214 19.9203 32.661C20.506 32.1119 20.9575 31.452 21.2441 30.7264C21.5307 30.0008 21.6457 29.2263 21.5812 28.4558C21.5167 27.6852 21.2743 26.9366 20.8704 26.2608C20.4665 25.5849 19.9107 24.9978 19.2407 24.5393C18.5707 24.0808 17.8022 23.7616 16.9875 23.6035C16.1727 23.4454 15.3309 23.4521 14.5193 23.6231C13.224 23.896 11.7031 23.6238 11.0237 22.4879L8.75132 18.6883C6.90645 15.6036 7.94029 11.5203 11.219 10.0473C14.6866 8.48953 18.787 7.14113 23.0006 7.14113C25.8751 7.14113 28.697 7.76867 31.3012 8.66213C36.6407 10.494 38.2251 17.0603 35.329 21.9058L25.9764 37.5535C24.6309 39.8047 21.3696 39.8039 20.0251 37.5522L19.098 35.9994ZM15.132 29.3597L14.0494 27.5477C13.5266 26.6726 13.7297 25.489 14.7169 25.2354C15.2998 25.0857 15.9113 25.0587 16.5068 25.1564C17.1023 25.2541 17.6668 25.474 18.1592 25.8C18.6515 26.1261 19.0593 26.5501 19.3527 27.0412C19.6461 27.5322 19.8178 28.0779 19.8552 28.6383C19.8926 29.1988 19.7948 29.76 19.569 30.2809C19.3431 30.8019 18.9949 31.2694 18.5497 31.6494C17.7539 32.3288 16.622 31.8526 16.0852 30.9545L15.132 29.3597ZM3.52561 9.95096C2.95855 9.00285 3.24853 7.77502 4.2106 7.23197C7.85087 5.17718 15.2806 1.61114 23.0006 1.61114C30.7218 1.61114 38.152 5.17564 41.792 7.2316C42.7538 7.77485 43.0434 9.00229 42.4768 9.95051C41.913 10.8939 40.7043 11.2154 39.7376 10.6924C35.5323 8.41744 29.4659 5.52999 23.0006 5.52999C16.5341 5.52999 10.4665 8.41861 6.26108 10.6919C5.29567 11.2138 4.08891 10.8928 3.52561 9.95096Z" fill="#1F2421"/>
<path id="Vector_2" d="M22.1361 17.7778C22.1361 18.9748 22.5183 20.1449 23.2345 21.1402C23.9506 22.1355 24.9685 22.9112 26.1594 23.3693C27.3503 23.8273 28.6607 23.9472 29.925 23.7137C31.1892 23.4801 32.3505 22.9037 33.262 22.0573C34.1735 21.2109 34.7942 20.1325 35.0457 18.9585C35.2972 17.7845 35.1681 16.5676 34.6748 15.4617C34.1815 14.3558 33.3462 13.4106 32.2744 12.7456C31.2026 12.0805 29.9425 11.7256 28.6535 11.7256C26.9256 11.7273 25.2689 12.3655 24.0471 13.5002C22.8253 14.6348 22.138 16.1732 22.1361 17.7778ZM23.8711 17.7778C23.8709 16.8994 24.1512 16.0407 24.6766 15.3102C25.202 14.5797 25.9488 14.0104 26.8226 13.6741C27.6965 13.3378 28.6581 13.2497 29.5859 13.421C30.5136 13.5922 31.3659 14.0151 32.0348 14.6362C32.7038 15.2572 33.1593 16.0486 33.344 16.9101C33.5286 17.7716 33.4339 18.6646 33.072 19.4761C32.71 20.2877 32.0971 20.9813 31.3106 21.4694C30.5241 21.9574 29.5994 22.2179 28.6535 22.2179C27.3857 22.2166 26.1702 21.7485 25.2737 20.9161C24.3771 20.0837 23.8727 18.9551 23.8711 17.7778Z" fill="#1F2421"/>
<path id="Vector_3" d="M16.6648 16.8298C16.665 16.1492 16.4479 15.4837 16.0407 14.9177C15.6336 14.3516 15.0549 13.9104 14.3777 13.6498C13.7005 13.3893 12.9554 13.321 12.2364 13.4538C11.5175 13.5865 10.8571 13.9143 10.3388 14.3956C9.82048 14.8769 9.46753 15.4902 9.32457 16.1578C9.18162 16.8254 9.25509 17.5174 9.5357 18.1462C9.8163 18.7751 10.2914 19.3125 10.901 19.6905C11.5105 20.0686 12.2271 20.2703 12.9602 20.2701C13.9423 20.2688 14.8838 19.906 15.5783 19.2611C16.2727 18.6162 16.6635 17.7419 16.6648 16.8298ZM14.9299 16.8298C14.9299 17.1918 14.8143 17.5457 14.5977 17.8467C14.3811 18.1476 14.0732 18.3822 13.7131 18.5207C13.3529 18.6592 12.9566 18.6954 12.5743 18.6247C12.192 18.554 11.8408 18.3796 11.5653 18.1236C11.2897 17.8675 11.1021 17.5413 11.0261 17.1863C10.9502 16.8312 10.9894 16.4632 11.1387 16.1289C11.288 15.7945 11.5408 15.5087 11.865 15.3077C12.1892 15.1068 12.5703 14.9996 12.9602 14.9998C13.4826 15.0003 13.9834 15.1933 14.3527 15.5364C14.722 15.8795 14.9296 16.3447 14.9299 16.8298Z" fill="#1F2421"/>
<path id="Vector_4" d="M28.2331 29.0003C28.3417 29.0322 28.4425 29.0837 28.5297 29.1518C28.6169 29.2199 28.6888 29.3033 28.7413 29.3972C28.7938 29.4911 28.8259 29.5937 28.8357 29.6991C28.8455 29.8045 28.8329 29.9107 28.7985 30.0115C28.7641 30.1124 28.7087 30.206 28.6354 30.287C28.562 30.3679 28.4723 30.4347 28.3711 30.4835C28.27 30.5322 28.1595 30.562 28.046 30.5711C27.9325 30.5802 27.8182 30.5685 27.7096 30.5366C27.1173 30.3637 26.4754 30.4157 25.9244 30.6812C25.3733 30.9467 24.958 31.4042 24.7693 31.9534C24.7348 32.0543 24.6793 32.1479 24.6059 32.2288C24.5326 32.3098 24.4427 32.3765 24.3415 32.4252C24.2404 32.4739 24.1299 32.5037 24.0163 32.5127C23.9028 32.5218 23.7884 32.51 23.6798 32.478C23.5712 32.446 23.4704 32.3945 23.3832 32.3263C23.2961 32.2582 23.2242 32.1747 23.1717 32.0808C23.1193 31.9868 23.0873 31.8842 23.0775 31.7788C23.0678 31.6733 23.0805 31.5672 23.1149 31.4663C23.4426 30.5097 24.1655 29.713 25.125 29.2507C26.0845 28.7884 27.2022 28.6983 28.2331 29.0003Z" fill="#1F2421"/>
<path id="Vector_5" d="M29.859 14.3648C29.9494 14.3913 30.0248 14.4501 30.0685 14.5282C30.1122 14.6063 30.1208 14.6974 30.0922 14.7813C30.0637 14.8653 30.0004 14.9353 29.9162 14.9759C29.8321 15.0165 29.7341 15.0244 29.6437 14.9979C28.853 14.7659 27.9955 14.8346 27.2594 15.1891C26.5233 15.5436 25.9688 16.1548 25.7175 16.8886C25.689 16.9726 25.6257 17.0425 25.5415 17.0832C25.4574 17.1238 25.3594 17.1317 25.269 17.1052C25.1786 17.0787 25.1032 17.0199 25.0595 16.9418C25.0157 16.8636 25.0072 16.7726 25.0358 16.6886C25.3445 15.7872 26.0257 15.0362 26.9299 14.6006C27.8342 14.1649 28.8876 14.0801 29.859 14.3648Z" fill="#1F2421"/>
<path id="Vector_6" d="M16.7797 25.8645C16.7794 25.8645 16.7793 25.865 16.7796 25.8651C17.6491 26.2098 18.336 26.8605 18.6898 27.6747C19.0437 28.4893 19.0353 29.401 18.6662 30.2099C18.6388 30.2697 18.593 30.3208 18.5346 30.3567C18.4762 30.3926 18.4077 30.4117 18.3376 30.4117C18.2786 30.4117 18.2205 30.3981 18.1685 30.3722C18.1165 30.3462 18.0723 30.3087 18.0397 30.263C18.0072 30.2172 17.9873 30.1648 17.982 30.1102C17.9766 30.0556 17.9859 30.0006 18.009 29.9502C18.3041 29.3036 18.3111 28.5747 18.0286 27.9233C17.746 27.2719 17.1969 26.751 16.5016 26.4749C16.4575 26.4584 16.4174 26.4339 16.3837 26.4029C16.3499 26.3719 16.3232 26.3349 16.305 26.2942C16.2868 26.2534 16.2776 26.2097 16.2778 26.1656C16.278 26.1215 16.2877 26.0779 16.3063 26.0373C16.3249 25.9967 16.352 25.96 16.3861 25.9292C16.4201 25.8985 16.4605 25.8744 16.5047 25.8583C16.5489 25.8422 16.5962 25.8345 16.6436 25.8355C16.6906 25.8366 16.7369 25.8463 16.7798 25.864C16.7802 25.8641 16.7801 25.8645 16.7797 25.8645Z" fill="#1F2421"/>
<path id="Vector_7" d="M18.5643 14.9994C18.4817 14.9995 18.3995 14.9883 18.3204 14.9663C18.211 14.9367 18.109 14.8873 18.0203 14.8211C17.9315 14.7548 17.8576 14.673 17.8029 14.5802C17.7482 14.4874 17.7138 14.3855 17.7015 14.2804C17.6893 14.1752 17.6995 14.0689 17.7315 13.9674C17.8512 13.5833 17.8019 13.1708 17.5945 12.8205C17.3871 12.4701 17.0385 12.2104 16.6252 12.0984C16.5158 12.0688 16.4138 12.0195 16.325 11.9533C16.2362 11.887 16.1623 11.8052 16.1075 11.7124C16.0527 11.6197 16.0181 11.5178 16.0057 11.4127C15.9934 11.3075 16.0034 11.2011 16.0353 11.0995C16.0672 10.998 16.1203 10.9033 16.1917 10.8208C16.263 10.7383 16.3511 10.6696 16.451 10.6188C16.5509 10.5679 16.6606 10.5358 16.7738 10.5243C16.8871 10.5128 17.0016 10.5221 17.111 10.5518C17.9655 10.7842 18.6858 11.322 19.1137 12.0472C19.5415 12.7723 19.642 13.6255 19.393 14.4194C19.3406 14.5861 19.2317 14.7327 19.0823 14.8372C18.933 14.9417 18.7513 14.9986 18.5643 14.9994Z" fill="#1F2421"/>
</g>
</svg>
