<svg width="45" height="46" viewBox="0 0 45 46" fill="none" xmlns="http://www.w3.org/2000/svg">
<g id="Group 9">
<path id="Vector" d="M3.31299 44.0937V44.0813L3.31236 44.0688L1.93236 16.4688H20.5686L19.1886 44.0688L19.188 44.0813V44.0937C19.188 44.2128 19.1645 44.3306 19.119 44.4405C19.0734 44.5505 19.0067 44.6504 18.9225 44.7346C18.8384 44.8187 18.7385 44.8855 18.6285 44.931C18.5186 44.9766 18.4007 45 18.2817 45H4.21924C4.10022 45 3.98238 44.9766 3.87243 44.931C3.76248 44.8855 3.66257 44.8187 3.57842 44.7346C3.49427 44.6504 3.42751 44.5505 3.38197 44.4406C3.33643 44.3306 3.31299 44.2128 3.31299 44.0937Z" fill="#797171" fill-opacity="0.3" stroke="black"/>
<path id="Vector_2" d="M18.0741 10.8438L18.4804 11.25H4.01961L4.42586 10.8438H18.0741Z" stroke="black"/>
<path id="Vector_3" d="M15.6517 2.0892C16.3491 1.3918 17.295 1 18.2812 1H22V1.40625H18.2812C17.4027 1.40625 16.5602 1.75524 15.9389 2.37646C15.3177 2.99767 14.9687 3.84022 14.9687 4.71875V9.84375H14.5625V4.71875C14.5625 3.73248 14.9543 2.7866 15.6517 2.0892ZM22 14.5625C22 14.6815 21.9765 14.7994 21.931 14.9093L22.3929 15.1006L21.931 14.9093C21.8854 15.0193 21.8187 15.1192 21.7345 15.2033C21.6504 15.2875 21.5505 15.3542 21.4405 15.3998C21.3306 15.4453 21.2127 15.4687 21.0937 15.4687H1.40625C1.1659 15.4687 0.935389 15.3733 0.765434 15.2033C0.59548 15.0334 0.5 14.8029 0.5 14.5625V13.1562C0.5 12.9159 0.59548 12.6854 0.765434 12.5154C0.935389 12.3455 1.1659 12.25 1.40625 12.25H21.0937C21.2127 12.25 21.3306 12.2734 21.4405 12.319C21.5505 12.3645 21.6504 12.4313 21.7345 12.5154C21.8187 12.5996 21.8854 12.6995 21.931 12.8094L22.3929 12.6181L21.931 12.8094C21.9765 12.9194 22 13.0372 22 13.1562V14.5625Z" fill="#797171" fill-opacity="0.3" stroke="black"/>
<path id="Vector_4" d="M2.65531 30.9375L2.14281 20.6875H20.3572L19.8447 30.9375H2.65531Z" fill="#797171" fill-opacity="0.3" stroke="black"/>
<path id="Vector_5" d="M7.81432 27.2356C7.62744 26.7844 7.53125 26.3009 7.53125 25.8125C7.53125 25.3241 7.62744 24.8406 7.81432 24.3894C8.00121 23.9382 8.27513 23.5283 8.62045 23.1829C8.96576 22.8376 9.37571 22.5637 9.82689 22.3768C10.2781 22.1899 10.7616 22.0938 11.25 22.0938C11.7383 22.0938 12.2219 22.1899 12.6731 22.3768C13.1243 22.5637 13.5342 22.8376 13.8795 23.1829C14.2249 23.5283 14.4988 23.9382 14.6857 24.3894C14.8726 24.8406 14.9687 25.3241 14.9687 25.8125C14.9687 26.3009 14.8726 26.7844 14.6857 27.2356C14.4988 27.6868 14.2249 28.0967 13.8795 28.4421C13.5342 28.7874 13.1243 29.0613 12.6731 29.2482C12.2219 29.4351 11.7383 29.5312 11.25 29.5312C10.7616 29.5312 10.2781 29.4351 9.82689 29.2482C9.37571 29.0613 8.96576 28.7874 8.62045 28.4421C8.27513 28.0967 8.00121 27.6868 7.81432 27.2356Z" fill="#797171" fill-opacity="0.3" stroke="black"/>
<path id="Vector_6" d="M14.5625 9.4375H14.9687V9.84375H14.5625V9.4375Z" fill="black" stroke="black"/>
<path id="Vector_7" d="M15.9692 42.6875V40.375H43.0942V42.6875C43.0942 43.3008 42.8506 43.889 42.4169 44.3227C41.9832 44.7564 41.395 45 40.7817 45H18.2817C17.9781 45 17.6773 44.9402 17.3968 44.824C17.1162 44.7078 16.8613 44.5374 16.6466 44.3227C16.4318 44.1079 16.2615 43.853 16.1453 43.5725C16.0291 43.2919 15.9692 42.9912 15.9692 42.6875ZM15.9785 32.3437C16.1071 28.9195 17.5681 26.7724 19.8411 25.4413C22.2692 24.0195 25.6753 23.5 29.5317 23.5C33.3881 23.5 36.7942 24.0195 39.2223 25.4413C41.4953 26.7724 42.9563 28.9195 43.0849 32.3437H15.9785Z" fill="white" stroke="black"/>
<path id="Vector_8" d="M17.3745 33.3438H41.687V39.375H17.3745V33.3438Z" fill="#797171" fill-opacity="0.3" stroke="black"/>
<path id="Vector_9" d="M44.5001 36.3594C44.5001 36.7862 44.3306 37.1956 44.0288 37.4974C43.727 37.7992 43.3176 37.9687 42.8908 37.9687H16.1721C16.1721 37.9687 16.1721 37.9687 16.1721 37.9687C15.7453 37.9687 15.336 37.7991 15.0343 37.4973C14.7325 37.1955 14.563 36.7862 14.563 36.3594C14.563 35.9326 14.7325 35.5233 15.0343 35.2215C15.336 34.9197 15.7453 34.7501 16.1721 34.75C16.1721 34.75 16.1721 34.75 16.1721 34.75H42.8908C43.3176 34.75 43.727 34.9196 44.0288 35.2214C44.3306 35.5232 44.5001 35.9325 44.5001 36.3594Z" fill="#797171" fill-opacity="0.3" stroke="black"/>
<path id="Vector_10" d="M22.4417 39.4528L22.4414 39.4525L17.7403 34.7514H28.4239L23.7228 39.4525L23.7225 39.4528C23.6384 39.537 23.5386 39.6038 23.4287 39.6494C23.3188 39.695 23.2011 39.7184 23.0821 39.7184C22.9631 39.7184 22.8454 39.695 22.7355 39.6494C22.6256 39.6038 22.5258 39.537 22.4417 39.4528ZM35.0977 36.6386L33.209 34.75H38.2676L36.379 36.6386L36.3787 36.6389C36.2947 36.7231 36.1948 36.7899 36.085 36.8355C35.9751 36.881 35.8573 36.9045 35.7383 36.9045C35.6194 36.9045 35.5016 36.881 35.3917 36.8355C35.2818 36.7899 35.182 36.7231 35.098 36.6389L35.0977 36.6386Z" fill="white" stroke="black"/>
<path id="Vector_11" d="M35.7211 28.0655C35.683 28.0274 35.6616 27.9757 35.6616 27.9219C35.6616 27.868 35.683 27.8163 35.7211 27.7782C35.7592 27.7402 35.8109 27.7188 35.8647 27.7188C35.9186 27.7188 35.9703 27.7402 36.0084 27.7782L36.3619 27.4247L36.0084 27.7782C36.0465 27.8163 36.0679 27.868 36.0679 27.9219C36.0679 27.9757 36.0465 28.0274 36.0084 28.0655L36.0084 28.0655C35.9703 28.1036 35.9186 28.125 35.8647 28.125C35.8109 28.125 35.7592 28.1036 35.7211 28.0655L35.3676 28.4191L35.7211 28.0655Z" fill="black" stroke="black"/>
<path id="Vector_12" d="M31.5688 30.922L31.5688 30.922C31.5934 30.9322 31.6198 30.9375 31.6465 30.9375C31.6732 30.9375 31.6996 30.9322 31.7242 30.922L31.7242 30.922C31.7489 30.9118 31.7713 30.8969 31.7901 30.878C31.809 30.8591 31.8239 30.8368 31.8341 30.8121C31.8444 30.7875 31.8496 30.7611 31.8496 30.7344C31.8496 30.7077 31.8444 30.6813 31.8341 30.6566C31.8239 30.632 31.809 30.6096 31.7901 30.5907L31.5688 30.922ZM31.5688 30.922C31.5441 30.9118 31.5217 30.8969 31.5029 30.878L31.1493 31.2316M31.5688 30.922L31.1493 31.2316M31.1493 31.2316L31.5029 30.878C31.484 30.8591 31.469 30.8367 31.4588 30.8121C31.4486 30.7875 31.4434 30.7611 31.4434 30.7344M31.1493 31.2316L31.4434 30.7344M31.4434 30.7344C31.4434 30.7077 31.4486 30.6813 31.4588 30.6566C31.469 30.632 31.484 30.6096 31.5029 30.5907C31.5217 30.5719 31.5441 30.5569 31.5688 30.5467C31.5934 30.5365 31.6198 30.5312 31.6465 30.5312C31.6732 30.5312 31.6996 30.5365 31.7242 30.5467C31.7489 30.5569 31.7713 30.5719 31.7901 30.5907L31.4434 30.7344Z" fill="black" stroke="black"/>
<path id="Vector_13" d="M28.6899 26.6593C28.6518 26.6212 28.6304 26.5695 28.6304 26.5156C28.6304 26.4618 28.6518 26.4101 28.6899 26.372C28.728 26.3339 28.7796 26.3125 28.8335 26.3125C28.8874 26.3125 28.939 26.3339 28.9771 26.372C29.0152 26.4101 29.0366 26.4618 29.0366 26.5156C29.0366 26.5695 29.0152 26.6212 28.9771 26.6593C28.939 26.6974 28.8874 26.7188 28.8335 26.7188C28.7796 26.7188 28.728 26.6974 28.6899 26.6593Z" fill="black" stroke="black"/>
<path id="Vector_14" d="M23.0654 28.0655C23.0273 28.0274 23.0059 27.9757 23.0059 27.9219C23.0059 27.868 23.0273 27.8163 23.0654 27.7782C23.1034 27.7402 23.1551 27.7188 23.209 27.7188C23.2629 27.7188 23.3145 27.7402 23.3526 27.7782C23.3907 27.8163 23.4121 27.868 23.4121 27.9219C23.4121 27.9757 23.3907 28.0274 23.3526 28.0655C23.3145 28.1036 23.2629 28.125 23.209 28.125C23.1551 28.125 23.1034 28.1036 23.0654 28.0655Z" fill="black" stroke="black"/>
</g>
</svg>
