<svg width="24" height="29" viewBox="0 0 24 29" fill="none" xmlns="http://www.w3.org/2000/svg">
<path id="Vector" d="M6.41182 23.8633H1.18342C0.838691 23.8633 0.551417 23.7483 0.379052 23.4611C0.149232 23.2312 0.0917774 22.8865 0.149232 22.5992L3.59653 1.68566C3.65398 1.16857 4.11362 0.766387 4.63071 0.766387H14.3406C14.398 0.766387 16.7537 0.708932 18.3624 2.26021C19.3966 3.23695 19.9137 4.67332 19.9137 6.39697C19.9137 11.3381 16.3515 14.7854 11.2955 14.7854H8.76747L7.50346 22.944C7.38855 23.4611 6.92891 23.8633 6.41182 23.8633ZM2.44743 21.68H5.49254L6.75654 13.5214C6.814 13.0043 7.27364 12.6021 7.84819 12.6021H11.2955C14.513 12.6021 17.7304 10.6486 17.7304 6.33951C17.7304 5.19041 17.4432 4.32859 16.8111 3.75404C15.8344 2.77731 14.3406 2.83476 14.2831 2.83476H5.49254L2.44743 21.68ZM10.2038 28.3447H6.12454C5.54999 28.3447 5.0329 27.8851 5.0329 27.2531C5.0329 26.6211 5.49254 26.1614 6.12454 26.1614H9.28456L10.5486 18.0029C10.606 17.4858 11.0657 17.0836 11.6402 17.0836H12.2148C13.9959 17.0836 20.0286 16.6239 21.5799 10.5912C21.7523 10.0166 22.3268 9.6719 22.9014 9.7868C23.4759 9.95917 23.8206 10.5337 23.7057 11.1083C22.2119 16.9687 17.041 19.152 12.6169 19.2669L11.3529 27.4255C11.1806 27.9425 10.7209 28.3447 10.2038 28.3447Z" fill="black"/>
</svg>
