<svg width="31" height="24" viewBox="0 0 31 24" fill="none" xmlns="http://www.w3.org/2000/svg">
<g id="&#240;&#159;&#166;&#134; icon &#34;mercado pago sign&#34;">
<path id="Vector" d="M15.6664 0.0644531C7.20485 0.0644531 0.34726 4.94229 0.34726 10.9212V11.5578C0.34726 17.9053 6.34323 23.0464 15.6664 23.0464C24.9895 23.0464 30.9899 17.9053 30.9899 11.553V10.9212C30.9899 4.94231 24.1279 0.0644531 15.6664 0.0644531ZM15.6664 21.1269C7.53182 21.1269 0.934939 16.5554 0.934939 10.9164C0.934939 5.27742 7.53182 0.705895 15.6664 0.705895C23.8009 0.705895 30.3978 5.27742 30.3978 10.9164C30.3978 16.5554 23.8053 21.1269 15.6664 21.1269ZM23.8628 11.9839C22.409 10.61 19.051 7.44588 18.1187 6.71826C17.7818 6.40908 17.3894 6.15641 16.9619 5.98129L16.9345 5.97148C16.7604 5.91075 16.5602 5.87574 16.3523 5.87574H16.3512H16.3513C16.0863 5.87957 15.8331 5.92833 15.5961 6.01528L15.6133 6.00979C14.9538 6.31336 14.3869 6.70954 13.8937 7.19242L13.899 7.18735L13.868 7.21128C13.4496 7.63568 12.9574 7.98151 12.4154 8.22308L12.3834 8.2357C12.2175 8.27812 12.027 8.30255 11.8312 8.30271H11.8311C11.7976 8.30575 11.7586 8.3075 11.7192 8.3075C11.3699 8.3075 11.0503 8.16983 10.8041 7.94194L10.806 7.94367C10.7795 7.91013 10.806 7.8527 10.859 7.7665L12.1316 6.28737C13.1346 5.20073 14.0802 4.17634 16.2585 4.12368H16.3689C17.4127 4.16937 18.3894 4.43272 19.2758 4.87268L19.2277 4.8513C20.3642 5.48084 21.7052 5.85449 23.1258 5.86611H23.1293C24.6922 5.83619 26.161 5.42949 27.4703 4.72672L27.4109 4.75556C27.243 4.60237 27.0707 4.45399 26.894 4.31038C25.7911 4.87051 24.5018 5.20826 23.1422 5.23411L23.1338 5.23425C21.8008 5.22023 20.5467 4.86799 19.4371 4.25326L19.484 4.27687C18.5713 3.81365 17.5065 3.52386 16.384 3.47796L16.3689 3.47744H16.2408C16.2214 3.47716 16.1986 3.47702 16.1756 3.47702C14.8512 3.47702 13.638 3.99278 12.6977 4.84905L12.706 4.84171C12.0632 4.87923 11.4599 5.0043 10.8888 5.20639L10.9386 5.19115C10.5699 5.32912 10.1434 5.42161 9.70087 5.44901L9.6881 5.44964H9.21531C7.49952 5.11329 5.98548 4.63881 4.53948 4.01836L4.70395 4.08058C4.52278 4.21941 4.34602 4.36779 4.17372 4.5114C5.57117 5.16446 7.20327 5.69328 8.90165 6.01299L9.03412 6.0336C9.23296 6.0336 9.44944 6.07189 9.66156 6.07189C10.1725 6.05193 10.6563 5.95712 11.1132 5.7972L11.0755 5.80861C11.345 5.72722 11.6455 5.63628 11.9592 5.56926L11.6897 5.80861L10.3906 7.33084C10.2566 7.46112 10.1727 7.64937 10.1727 7.85885C10.1727 7.94774 10.1878 8.03279 10.2154 8.11119L10.2139 8.10633C10.2908 8.27803 10.4071 8.41783 10.5503 8.5156L10.5541 8.51801C10.9369 8.75618 11.3957 8.89666 11.8849 8.89666C11.9017 8.89666 11.9185 8.89647 11.9352 8.89615L11.9327 8.89622L11.947 8.89626C12.136 8.89626 12.3202 8.87359 12.4973 8.83058L12.4805 8.83399C13.1566 8.58184 13.7381 8.20321 14.2301 7.71945L14.2259 7.72342C14.7071 7.27208 15.2676 6.90177 15.8792 6.64185L15.9182 6.62725C16.0593 6.58431 16.2218 6.55829 16.3895 6.55549L16.391 6.55544H16.5147C17.0123 6.6452 17.4489 6.88017 17.7985 7.21841L17.7961 7.21607C18.8565 8.0777 23.5755 12.5534 23.6197 12.5965C23.7945 12.7758 23.9032 13.0289 23.9032 13.3096C23.9032 13.3232 23.903 13.3366 23.9025 13.35L23.9025 13.3481C23.8838 13.6266 23.7391 13.8645 23.5305 13.997L23.5269 13.9991C23.3531 14.127 23.1396 14.205 22.9095 14.2097H22.9063C22.7037 14.2097 22.515 14.1455 22.3564 14.0348L22.3604 14.0374C22.3604 14.0374 20.7256 12.4147 20.1512 11.8785C20.0791 11.7955 19.9834 11.7372 19.8758 11.7163L19.8728 11.7158L19.8694 11.7157C19.8209 11.7157 19.7777 11.7399 19.7493 11.7777L19.7491 11.778C19.6563 11.9025 19.7491 12.0748 19.8817 12.1897L21.7684 14.2481C21.9057 14.3921 21.9999 14.5837 22.0285 14.7982L22.029 14.8033C22.0292 14.8087 22.0292 14.815 22.0292 14.8214C22.0292 15.1739 21.8533 15.482 21.5914 15.6481L21.5872 15.6506C21.3998 15.7947 21.1678 15.8833 20.9171 15.8899H20.9156C20.7146 15.8898 20.528 15.8237 20.3731 15.7104L20.3765 15.7128L20.107 15.4256C19.6121 14.899 19.0996 14.3533 18.7284 14.0135C18.6546 13.9316 18.5573 13.8749 18.4484 13.8559L18.4456 13.8555L18.4408 13.8554C18.3958 13.8554 18.3553 13.8756 18.3263 13.9081L18.3263 13.9081C18.2821 13.9608 18.2556 14.0517 18.3616 14.2049C18.3923 14.247 18.4241 14.2845 18.4583 14.3193L18.4588 14.3198L19.8374 15.9952C19.9194 16.0952 19.9694 16.2276 19.9694 16.3727C19.9694 16.4989 19.9315 16.6156 19.8673 16.7101L19.8684 16.7085L19.8198 16.7755C19.7796 16.8231 19.7377 16.8668 19.6935 16.9078L19.6916 16.9095C19.5116 17.0532 19.2853 17.1395 19.0405 17.1395C19.0333 17.1395 19.0261 17.1394 19.019 17.1392H19.02C18.9922 17.142 18.9599 17.1437 18.9272 17.1437C18.8946 17.1437 18.8622 17.1421 18.8303 17.139L18.8344 17.1393C18.7302 17.1294 18.6373 17.084 18.5644 17.0144L18.5649 17.0148C18.4898 16.9287 17.7961 16.1628 17.2393 15.641C17.1694 15.5618 17.0767 15.5068 16.9726 15.4882L16.9698 15.4878C16.9204 15.4881 16.8761 15.5121 16.8463 15.5498L16.8461 15.55C16.7312 15.6841 16.9035 15.8851 16.9742 15.9617L18.1495 17.3643C18.1387 17.3973 18.1237 17.4259 18.105 17.451L18.1054 17.4504C18.0612 17.5127 17.9198 17.6659 17.4956 17.7281H17.341C16.915 17.6981 16.5231 17.5651 16.179 17.352L16.1921 17.3594C16.2928 17.1262 16.3516 16.8528 16.3516 16.5647C16.3516 15.5155 15.5726 14.6633 14.607 14.6501H14.4733C14.4849 14.573 14.4914 14.4841 14.4914 14.3936C14.4914 13.7199 14.1265 13.1385 13.5991 12.8689L13.5896 12.8645C13.3743 12.7564 13.1227 12.6916 12.8575 12.6874H12.8561C12.8532 12.6874 12.8498 12.6874 12.8463 12.6874C12.6561 12.6874 12.4742 12.7261 12.3069 12.7965L12.3171 12.7928C12.1373 12.4195 11.8355 12.1376 11.4703 12.0062L11.4599 12.0029C11.2664 11.9197 11.0423 11.8692 10.8079 11.8641H10.8059C10.8028 11.8641 10.799 11.8641 10.7952 11.8641C10.4308 11.8641 10.0938 11.9915 9.82031 12.2075L9.82506 12.204C9.55235 11.8314 9.13462 11.5946 8.6658 11.5946C8.25501 11.5946 7.88349 11.7764 7.61592 12.0698L7.61577 12.0699C7.24899 11.7684 5.79972 10.7679 1.91582 9.8105C1.72583 9.76258 1.29722 9.62858 1.03211 9.54719C0.99427 9.7336 0.960009 9.96862 0.937182 10.2074L0.934896 10.2365L1.79211 10.4567C5.7688 11.4141 7.07227 12.405 7.2932 12.5917C7.22209 12.7734 7.18079 12.9848 7.18079 13.2066C7.18079 14.0976 7.84746 14.8198 8.66983 14.8198C8.76424 14.8198 8.8566 14.8103 8.94614 14.7921L8.93691 14.7937C9.0607 15.4494 9.48679 15.9729 10.0472 16.1921L10.0592 16.1962C10.2163 16.2647 10.3983 16.3051 10.589 16.3063H10.5894C10.7105 16.306 10.8276 16.2886 10.9391 16.2561L10.9296 16.2585C11.2052 16.8788 11.7726 17.304 12.4337 17.3259L12.4363 17.3259C12.5952 17.3245 12.7469 17.293 12.8874 17.2365L12.8782 17.2398C13.1546 17.9302 13.7783 18.4044 14.5043 18.4044C14.9926 18.4044 15.4347 18.1898 15.7546 17.8429C16.1809 18.1155 16.6885 18.2892 17.2309 18.3212L17.2393 18.3216C17.2729 18.3239 17.3123 18.3252 17.3519 18.3252C17.3916 18.3252 17.4309 18.3239 17.47 18.3213L17.4646 18.3216C17.8849 18.3167 18.2589 18.1061 18.5055 17.7785L18.5074 17.7758C18.529 17.7441 18.5495 17.708 18.5674 17.6702L18.5693 17.6658C18.7116 17.715 18.8754 17.7445 19.0452 17.7471L19.0465 17.7471C19.4109 17.7383 19.7438 17.599 20.0086 17.3711L20.0053 17.3738C20.2886 17.1696 20.4929 16.8576 20.5692 16.4931L20.5709 16.4834C20.6646 16.5048 20.7724 16.517 20.8828 16.517C20.8865 16.517 20.8903 16.517 20.894 16.5169H20.8934C21.2624 16.5123 21.6034 16.3858 21.8845 16.173L21.8788 16.1771C22.3049 15.9051 22.5863 15.4104 22.5863 14.8447C22.5863 14.8301 22.586 14.8156 22.5857 14.8011V14.8032C22.6838 14.8271 22.7966 14.841 22.9123 14.8415H22.9127C23.257 14.8376 23.5762 14.7238 23.8424 14.5309L23.8362 14.5352C24.1957 14.2943 24.4405 13.8845 24.4765 13.4107L24.4768 13.4054C24.4795 13.3704 24.481 13.3296 24.481 13.2884C24.481 12.9935 24.4038 12.7181 24.2701 12.4846L24.2735 12.4911C25.9823 11.703 28.0258 10.9857 30.1363 10.4581L30.3933 10.404C30.3735 10.14 30.3437 9.90409 30.3031 9.67234L30.3093 9.71471C27.8407 10.3129 25.6882 11.0932 23.6391 12.0798L23.8627 11.9837L23.8628 11.9839ZM14.5352 17.8239H14.5298C13.888 17.8239 13.3646 17.2749 13.3379 16.5867L13.3378 16.5841C13.3378 16.5266 13.3378 16.3639 13.2052 16.3639C13.147 16.3711 13.0961 16.4009 13.0596 16.445L13.0594 16.4452C12.9112 16.6156 12.7038 16.7242 12.4731 16.7324H12.4717C12.3306 16.7296 12.1974 16.6964 12.0763 16.6387L12.0829 16.6415C11.398 16.3399 11.3892 15.8325 11.4157 15.6267C11.419 15.6131 11.4209 15.5975 11.4209 15.5813C11.4209 15.5409 11.409 15.5035 11.3888 15.4729L11.3892 15.4735L11.345 15.4304H11.3008C11.2549 15.4341 11.2138 15.4534 11.1812 15.4833L11.1815 15.483C11.0227 15.6169 10.8224 15.7003 10.6043 15.708L10.6027 15.708C10.4865 15.7077 10.3757 15.6831 10.2742 15.6387L10.2801 15.641C9.79209 15.4467 9.45028 14.9475 9.45028 14.3619C9.45028 14.257 9.46124 14.155 9.482 14.057L9.48036 14.0661C9.48856 14.0487 9.49339 14.0281 9.49339 14.0062C9.49339 13.9844 9.48858 13.9639 9.48005 13.9457L9.48038 13.9464L9.41855 13.889L9.36111 13.9512C9.19283 14.1276 8.96318 14.2363 8.71013 14.2363C8.19277 14.2363 7.77335 13.7819 7.77335 13.2215C7.77335 12.661 8.19277 12.2066 8.71013 12.2066C9.18607 12.2066 9.57917 12.5912 9.63893 13.0892L9.63945 13.0943L9.67039 13.3672L9.80739 13.1374C10.0423 12.7477 10.4431 12.4938 10.8985 12.4938C11.0423 12.4938 11.1807 12.5191 11.31 12.5658L11.3008 12.563C11.6823 12.6953 11.9552 13.0721 11.9636 13.5193V13.5204C11.9636 13.6544 12.0608 13.6592 12.0785 13.6592C12.1216 13.6545 12.159 13.6314 12.1843 13.5973L12.1845 13.597C12.357 13.4021 12.5992 13.281 12.8675 13.281H12.8742H12.8738C13.0617 13.2847 13.2389 13.3301 13.3991 13.4091L13.3908 13.4055C14.2745 13.8123 13.8724 15.0282 13.868 15.0378C13.7929 15.2389 13.7885 15.325 13.868 15.3776H13.8989C13.9627 15.37 14.021 15.3531 14.0753 15.3281L14.0712 15.3298C14.2092 15.2694 14.3688 15.2299 14.5358 15.2199L14.5396 15.2197C14.5614 15.2182 14.5868 15.2173 14.6125 15.2173C15.2762 15.2173 15.8143 15.8003 15.8143 16.5194C15.8143 17.2385 15.2762 17.8214 14.6125 17.8214C14.5868 17.8214 14.5614 17.8205 14.5362 17.8188L14.5396 17.819L14.5352 17.8239Z" fill="black"/>
</g>
</svg>
