<svg width="47" height="30" viewBox="0 0 47 30" fill="none" xmlns="http://www.w3.org/2000/svg">
<g id="Page-1">
<g id="mastercard">
<path id="Shape" d="M43.268 29.1105H3.78615C1.99698 29.1086 0.547054 27.6789 0.545105 25.9147V3.19576C0.547054 1.43159 1.99698 0.00192141 3.78615 0H43.268C45.0571 0.00192141 46.5071 1.43159 46.509 3.19576V25.9147C46.5071 27.6789 45.0571 29.1086 43.268 29.1105ZM3.78615 1.74314C2.97252 1.74314 2.31295 2.3935 2.31295 3.19576V25.9147C2.31295 26.717 2.97252 27.3673 3.78615 27.3673H43.268C44.0816 27.3673 44.7412 26.717 44.7412 25.9147V3.19576C44.7412 2.3935 44.0816 1.74314 43.268 1.74314H3.78615Z" fill="black"/>
<g id="Group">
<path id="Shape_2" d="M14.8402 25.0931V23.6874C14.8402 23.1483 14.5148 22.797 13.9808 22.797C13.7004 22.797 13.4003 22.8909 13.1911 23.193C13.0284 22.9351 12.7984 22.797 12.4479 22.797C12.1831 22.7855 11.9303 22.9087 11.7748 23.1251V22.8423H11.3333V25.0914H11.7748V23.8045C11.7748 23.4085 12.007 23.219 12.3323 23.219C12.6576 23.219 12.8433 23.43 12.8433 23.8045V25.0931H13.2847V23.8045C13.2847 23.4085 13.517 23.219 13.8423 23.219C14.1676 23.219 14.3533 23.43 14.3533 23.8045V25.0931H14.8402ZM22.0883 22.8672H21.275V22.1884H20.8347V22.8672H20.3702V23.2632H20.8347V24.3198C20.8347 24.8352 21.0203 25.1401 21.5779 25.1401C21.7891 25.1356 21.9961 25.0793 22.1809 24.976L22.0412 24.5801C21.9159 24.6591 21.7705 24.6997 21.6227 24.6972C21.3905 24.6972 21.2744 24.5563 21.2744 24.3221V23.2451H22.0877V22.87L22.0883 22.8672ZM26.2234 22.797C25.9788 22.7915 25.7493 22.9162 25.6193 23.1251V22.8423H25.1778V25.0914H25.6193V23.8283C25.6193 23.4532 25.8049 23.219 26.1073 23.219C26.2093 23.2232 26.3105 23.239 26.409 23.266L26.5487 22.844C26.4422 22.8169 26.3331 22.8012 26.2234 22.797ZM19.9742 23.0312C19.742 22.8672 19.4167 22.797 19.0683 22.797C18.5108 22.797 18.1625 23.055 18.1625 23.5002C18.1625 23.8752 18.4182 24.0857 18.9057 24.1564L19.1379 24.1796C19.3937 24.2265 19.5563 24.3204 19.5563 24.4375C19.5563 24.6016 19.3707 24.7203 19.0218 24.7203C18.7554 24.7259 18.4945 24.6437 18.2786 24.4862L18.0463 24.8374C18.3717 25.0716 18.7666 25.1203 18.9999 25.1203C19.6506 25.1203 19.9989 24.8159 19.9989 24.394C19.9989 23.998 19.7184 23.8085 19.2321 23.7378L18.9999 23.7146C18.7907 23.6914 18.6073 23.6207 18.6073 23.4804C18.6073 23.3163 18.7929 23.1975 19.0487 23.1975C19.3292 23.1975 19.6063 23.3146 19.7459 23.3848L19.9742 23.0312ZM26.7114 23.9686C26.7114 24.6474 27.1528 25.1401 27.873 25.1401C28.1984 25.1401 28.4306 25.0699 28.6628 24.8821L28.4306 24.5308C28.2662 24.6651 28.0616 24.7395 27.85 24.7418C27.4574 24.7418 27.1528 24.4375 27.1528 23.9923C27.1528 23.5471 27.4535 23.2451 27.85 23.2451C28.0616 23.2474 28.2662 23.3218 28.4306 23.4561L28.6628 23.1048C28.4306 22.9175 28.1984 22.8468 27.873 22.8468C27.1758 22.7999 26.7114 23.292 26.7114 23.9714V23.9686ZM23.5983 22.797C22.9476 22.797 22.5062 23.2654 22.5062 23.9686C22.5062 24.6717 22.9706 25.1401 23.6443 25.1401C23.972 25.1471 24.2921 25.0395 24.5502 24.8357L24.3179 24.5077C24.1313 24.6535 23.9034 24.7356 23.6673 24.7418C23.3655 24.7418 23.0402 24.5546 22.9942 24.1564H24.6438V23.9691C24.6438 23.266 24.2254 22.7976 23.5983 22.7976V22.797ZM23.5753 23.219C23.9006 23.219 24.1328 23.43 24.1558 23.7813H22.9482C23.0177 23.4532 23.2286 23.219 23.5753 23.219ZM17.5584 23.9686V22.844H17.1169V23.1268C16.9542 22.9158 16.7243 22.7987 16.3967 22.7987C15.7696 22.7987 15.3046 23.2909 15.3046 23.9703C15.3046 24.6496 15.769 25.1418 16.3967 25.1418C16.722 25.1418 16.9542 25.0247 17.1169 24.8137V25.0965H17.5584V23.9686ZM15.7696 23.9686C15.7696 23.5466 16.0254 23.219 16.4668 23.219C16.8853 23.219 17.1399 23.5471 17.1399 23.9686C17.1399 24.4138 16.8595 24.7181 16.4668 24.7181C16.0254 24.7413 15.7696 24.39 15.7696 23.9686ZM32.9381 22.797C32.6935 22.7915 32.4641 22.9162 32.334 23.1251V22.8423H31.8925V25.0914H32.3334V23.8283C32.3334 23.4532 32.5191 23.219 32.8214 23.219C32.9234 23.2232 33.0247 23.239 33.1232 23.266L33.2629 22.844C33.1563 22.8169 33.0473 22.8012 32.9375 22.797H32.9381ZM31.2189 23.9686V22.844H30.7774V23.1268C30.6148 22.9158 30.3848 22.7987 30.0572 22.7987C29.4301 22.7987 28.9651 23.2909 28.9651 23.9703C28.9651 24.6496 29.4296 25.1418 30.0572 25.1418C30.3826 25.1418 30.6148 25.0247 30.7774 24.8137V25.0965H31.2189V23.9686ZM29.4301 23.9686C29.4301 23.5466 29.6859 23.219 30.1273 23.219C30.5458 23.219 30.8004 23.5471 30.8004 23.9686C30.8004 24.4138 30.52 24.7181 30.1273 24.7181C29.6859 24.7413 29.4301 24.39 29.4301 23.9686ZM35.7028 23.9686V21.9536H35.2614V23.1251C35.0987 22.9141 34.8688 22.797 34.5412 22.797C33.9141 22.797 33.4491 23.2892 33.4491 23.9686C33.4491 24.6479 33.9135 25.1401 34.5412 25.1401C34.8665 25.1401 35.0987 25.023 35.2614 24.812V25.0948H35.7028V23.9686ZM33.9141 23.9686C33.9141 23.5466 34.1699 23.219 34.6113 23.219C35.0298 23.219 35.2844 23.5471 35.2844 23.9686C35.2844 24.4138 35.0039 24.7181 34.6113 24.7181C34.1693 24.7418 33.9135 24.3906 33.9135 23.9686H33.9141Z" fill="black"/>
<path id="Shape_3" d="M34.2865 6.45293C31.4006 3.54082 26.8502 3.15923 23.5271 5.55067C20.9784 3.71936 17.6288 3.47739 14.8474 4.92365C12.0659 6.36991 10.3187 9.26205 10.3197 12.418C10.3187 15.574 12.0659 18.4661 14.8474 19.9124C17.6288 21.3586 20.9784 21.1167 23.5271 19.2854C26.0757 21.1167 29.4253 21.3586 32.2067 19.9124C34.9882 18.4661 36.7354 15.574 36.7344 12.418C36.741 10.1798 35.8596 8.03186 34.2865 6.45293ZM23.5271 17.9504C21.957 16.548 21.0583 14.5343 21.0583 12.4191C21.0583 10.304 21.957 8.29034 23.5271 6.88794C25.0961 8.29092 25.9941 10.3044 25.9941 12.4191C25.9941 14.5339 25.0961 16.5474 23.5271 17.9504ZM18.683 19.7945C14.6446 19.7945 11.3709 16.4929 11.3709 12.4203C11.3709 8.34762 14.6446 5.04609 18.683 5.04609C20.0995 5.04189 21.4858 5.45861 22.6688 6.24419C20.9714 7.8421 20.0077 10.0788 20.0077 12.4206C20.0077 14.7623 20.9714 16.999 22.6688 18.5969C21.4857 19.3823 20.0994 19.7988 18.683 19.7945ZM28.3711 19.7945C26.956 19.7987 25.571 19.3828 24.3886 18.5986C26.0852 16.9999 27.0483 14.7631 27.0483 12.4214C27.0483 10.0797 26.0852 7.84292 24.3886 6.24419C25.5717 5.45861 26.958 5.04189 28.3745 5.04609C32.4128 5.04609 35.6866 8.34763 35.6866 12.4203C35.6866 16.4929 32.4128 19.7945 28.3745 19.7945H28.3711Z" fill="black"/>
</g>
</g>
</g>
</svg>
