<svg width="38" height="38" viewBox="0 0 38 38" fill="none" xmlns="http://www.w3.org/2000/svg">
<g id="Usuario Cliente">
<g id="Vector" filter="url(#filter0_d_633_2415)">
<path d="M11.375 3.04018C13.6181 1.74263 16.2224 1 19 1C27.4223 1 34.25 7.82765 34.25 16.25C34.25 24.6723 27.4223 31.5 19 31.5C10.5777 31.5 3.75 24.6723 3.75 16.25C3.75 13.4724 4.49263 10.8681 5.79018 8.625" fill="#CF5C36"/>
<path d="M11.375 3.04018C13.6181 1.74263 16.2224 1 19 1C27.4223 1 34.25 7.82765 34.25 16.25C34.25 24.6723 27.4223 31.5 19 31.5C10.5777 31.5 3.75 24.6723 3.75 16.25C3.75 13.4724 4.49263 10.8681 5.79018 8.625" stroke="white" stroke-width="1.83" stroke-linecap="round"/>
</g>
<path id="Vector_2" d="M18.9998 16.2496C21.5265 16.2496 23.5748 14.2013 23.5748 11.6746C23.5748 9.14791 21.5265 7.09961 18.9998 7.09961C16.4731 7.09961 14.4248 9.14791 14.4248 11.6746C14.4248 14.2013 16.4731 16.2496 18.9998 16.2496Z" stroke="white" stroke-width="1.525"/>
<g id="Vector_3" filter="url(#filter1_d_633_2415)">
<path d="M28.1029 28.4502C27.8603 24.0407 26.5102 20.8252 18.9999 20.8252C11.4898 20.8252 10.1397 24.0407 9.89697 28.4502" stroke="white" stroke-width="1.525" stroke-linecap="round" shape-rendering="crispEdges"/>
</g>
</g>
<defs>
<filter id="filter0_d_633_2415" x="0.394961" y="0.0849609" width="37.2101" height="37.2101" filterUnits="userSpaceOnUse" color-interpolation-filters="sRGB">
<feFlood flood-opacity="0" result="BackgroundImageFix"/>
<feColorMatrix in="SourceAlpha" type="matrix" values="0 0 0 0 0 0 0 0 0 0 0 0 0 0 0 0 0 0 127 0" result="hardAlpha"/>
<feOffset dy="2.44"/>
<feGaussianBlur stdDeviation="1.22"/>
<feComposite in2="hardAlpha" operator="out"/>
<feColorMatrix type="matrix" values="0 0 0 0 0 0 0 0 0 0 0 0 0 0 0 0 0 0 0.25 0"/>
<feBlend mode="normal" in2="BackgroundImageFix" result="effect1_dropShadow_633_2415"/>
<feBlend mode="normal" in="SourceGraphic" in2="effect1_dropShadow_633_2415" result="shape"/>
</filter>
<filter id="filter1_d_633_2415" x="6.69428" y="20.0625" width="24.611" height="14.0304" filterUnits="userSpaceOnUse" color-interpolation-filters="sRGB">
<feFlood flood-opacity="0" result="BackgroundImageFix"/>
<feColorMatrix in="SourceAlpha" type="matrix" values="0 0 0 0 0 0 0 0 0 0 0 0 0 0 0 0 0 0 127 0" result="hardAlpha"/>
<feOffset dy="2.44"/>
<feGaussianBlur stdDeviation="1.22"/>
<feComposite in2="hardAlpha" operator="out"/>
<feColorMatrix type="matrix" values="0 0 0 0 0 0 0 0 0 0 0 0 0 0 0 0 0 0 0.25 0"/>
<feBlend mode="normal" in2="BackgroundImageFix" result="effect1_dropShadow_633_2415"/>
<feBlend mode="normal" in="SourceGraphic" in2="effect1_dropShadow_633_2415" result="shape"/>
</filter>
</defs>
</svg>
